<svg xmlns="http://www.w3.org/2000/svg" xmlns:xlink="http://www.w3.org/1999/xlink" version="1.1" x="0px" y="0px" viewBox="0 0 100 100" style="enable-background:new 0 0 100 100;" xml:space="preserve"><g><path d="M88.6,65.6l-7.7-22.9c-1.2-6-27.7-6.2-30.8-6.2c-3.1,0-29.7,0.2-30.8,6.2l-7.8,22.9c-0.7,2.2,0.3,4.6,2.3,5.7   c5.6,2.8,19.8,4.5,36.3,4.5c16.3,0,30.5-1.8,36.2-4.5C88.3,70.4,89.4,67.9,88.6,65.6z M50,39.5c16.7,0,26,2.3,27.7,3.6   c-0.5,0.4-1.7,0.9-3.5,1.4v-1c0-0.3-0.2-0.5-0.5-0.5s-0.5,0.2-0.5,0.5v1.2c-0.4,0.1-0.8,0.2-1.2,0.3v-2.2c0-0.3-0.2-0.5-0.5-0.5   s-0.5,0.2-0.5,0.5v2.4c-0.4,0.1-0.8,0.1-1.2,0.2v-3c0-0.3-0.2-0.5-0.5-0.5s-0.5,0.2-0.5,0.5v3.2C64.3,46.2,58,46.8,50,46.8   c-8.1,0-14.5-0.5-19.1-1.2v-3.2c0-0.3-0.2-0.5-0.5-0.5s-0.5,0.2-0.5,0.5v3c-0.4-0.1-0.8-0.1-1.2-0.2v-2.3c0-0.3-0.2-0.5-0.5-0.5   s-0.5,0.2-0.5,0.5V45c-0.4-0.1-0.8-0.2-1.2-0.3v-1.2c0-0.3-0.2-0.5-0.5-0.5s-0.5,0.2-0.5,0.5v0.9c-1.7-0.5-2.8-0.9-3.3-1.3   C24,41.8,33.3,39.5,50,39.5z M84.9,68.7c-5.2,2.5-19.2,4.2-34.9,4.2c-15.8,0-29.8-1.7-35-4.2c-0.7-0.4-1.1-1.2-0.8-2l7-20.7   c6.6,3.7,26.1,3.9,28.7,3.9c2.6,0,22.2-0.1,28.7-3.9l7,20.6C86,67.4,85.7,68.3,84.9,68.7z"></path><path d="M58.8,60c-1-0.4-2.2-0.2-3,0.5c-2.5-0.8-4.1-1.4-4.9-1.7c-1.1-0.4-3.4-1.3-5.2-2.1c0-1-0.6-1.9-1.5-2.2   c-0.6-0.2-1.2-0.2-1.8,0.1c-0.6,0.3-1,0.7-1.2,1.3c-0.1,0.3-0.1,0.5-0.1,0.8c-0.7,0.3-1.2,0.9-1.5,1.7c-0.6,1.6,0.2,3.4,1.8,3.9   c1.3,0.5,2.8,0,3.6-1.1c1.7,0.6,3.7,1.3,4.6,1.7c1.1,0.4,3.4,1.3,5.1,2c-0.4,1.2,0.2,2.5,1.4,3c0.3,0.1,0.6,0.2,0.8,0.2   c1,0,1.9-0.6,2.2-1.5c0.1-0.3,0.1-0.5,0.1-0.8c0.7-0.3,1.2-0.9,1.5-1.7c0.3-0.8,0.3-1.6-0.1-2.3C60.2,60.9,59.6,60.3,58.8,60z    M59.7,63.6c-0.2,0.6-0.7,1-1.3,1.2c-0.2,0.1-0.4,0.3-0.3,0.6c0,0.2,0,0.5-0.1,0.7c-0.3,0.7-1.1,1.1-1.8,0.8   c-0.7-0.3-1.1-1.1-0.8-1.8c0-0.1,0.1-0.2,0.1-0.3c0.1-0.1,0.1-0.3,0.1-0.4c0-0.1-0.2-0.3-0.3-0.3c-1.8-0.7-4.5-1.8-5.6-2.2   c-1-0.4-3.3-1.2-5-1.8c-0.1,0-0.1,0-0.2,0c-0.2,0-0.4,0.1-0.4,0.3c-0.5,1-1.6,1.4-2.6,1c-1.1-0.4-1.6-1.6-1.2-2.7   c0.2-0.6,0.7-1,1.3-1.2c0.2-0.1,0.4-0.3,0.3-0.6c0-0.2,0-0.5,0.1-0.7c0.3-0.7,1.1-1.1,1.8-0.8c0.6,0.2,1,0.9,0.9,1.5   c0,0.2,0.1,0.5,0.3,0.5c1.9,0.8,4.5,1.8,5.6,2.3c0.8,0.3,2.6,0.9,5.2,1.8c0.2,0.1,0.4,0,0.5-0.1c0.6-0.6,1.4-0.8,2.2-0.5   c0.5,0.2,0.9,0.6,1.2,1.1C59.9,62.6,59.9,63.1,59.7,63.6z"></path><path d="M22.1,49.5c-0.3-0.1-0.5,0.1-0.6,0.3l-4.3,15c-0.1,0.3,0.1,0.5,0.3,0.6c0,0,0.1,0,0.1,0c0.2,0,0.4-0.1,0.5-0.4l4.3-15   C22.5,49.9,22.3,49.6,22.1,49.5z"></path></g></svg>