<svg xmlns="http://www.w3.org/2000/svg" xmlns:xlink="http://www.w3.org/1999/xlink" version="1.1" x="0px" y="0px" viewBox="0 0 100 100" enable-background="new 0 0 100 100" xml:space="preserve"><path fill="#000000" d="M98.616,36.374c-0.003-0.062-0.007-0.12-0.016-0.178C98.109,26.848,73.187,22.583,50,22.583  c-23.419,0-48.625,4.348-48.625,13.892c0,0.518,0.088,1.018,0.232,1.505c0.015,0.178,0.046,0.355,0.104,0.532l11.426,26.52  C15.075,73.168,32.634,77.417,50,77.417c17.389,0,34.969-4.26,36.869-12.416l10.96-25.729c0.457-0.782,0.717-1.607,0.771-2.479  c0.006-0.056,0.009-0.111,0.013-0.167c0-0.05,0.012-0.1,0.012-0.151C98.625,36.441,98.617,36.408,98.616,36.374z M43.12,65.971  c-0.886,0.212-1.794-0.231-2.319-1.043c-0.99-1.445-1.545-3.63-0.74-4.76c0.384-0.543,2.761,0.646,3.581,1.32  c0.483,0.348,0.861,0.895,1.02,1.559C44.979,64.385,44.289,65.692,43.12,65.971z M44.353,49.924c1.824-0.776,2.745,4.4,2.917,5.703  c0.169,1.277-0.428,2.528-1.521,2.992C41.959,60.234,39.62,51.941,44.353,49.924z M56.667,70.838  c-1.734,0.701-3.221,0.679-4.512,0.296c-0.98,0.923-2.298,1.613-4.161,1.769c-1.658,0.188-3.279-1.084-3.629-2.55  c-0.43-1.805,0.032-2.721,1.501-3.623c1.719-1.475,1.035-3.182,1.11-4.805c0.062-1.312,0.979-2.479,2.321-2.798  c1.37-0.324,2.744,0.338,3.371,1.526c0.788,1.49,1.144,3.243,3.158,3.718c1.726,0.17,2.492,0.714,2.931,2.556  C59.107,68.4,58.231,70.26,56.667,70.838z M49.569,48.683c5.134-0.33,6.78,8.128,2.669,8.392c-1.186,0.077-2.279-0.769-2.705-1.987  C49.1,53.848,47.591,48.812,49.569,48.683z M59.498,60.479c-0.104,0.961-0.716,1.765-1.602,1.977  c-1.169,0.277-2.375-0.58-2.692-1.918c-0.159-0.664-0.067-1.322,0.209-1.852c0.428-0.969,2.014-3.102,2.602-2.79  C59.241,56.545,59.731,58.743,59.498,60.479z M50,45.74c-28.465,0-43.994-6.12-43.994-9.265c0-3.143,15.529-9.261,43.994-9.261  c28.465,0,43.994,6.119,43.994,9.261C93.994,39.62,78.465,45.74,50,45.74z"></path></svg>